<?xml version="1.0" encoding="UTF-8"?>
<svg width="684px" height="184px" viewBox="0 0 684 184" version="1.1" xmlns="http://www.w3.org/2000/svg" xmlns:xlink="http://www.w3.org/1999/xlink">
    <title>编组</title>
    <g id="页面-1" stroke="none" stroke-width="1" fill="none" fill-rule="evenodd">
        <g id="编组" fill="#FFFFFF" fill-rule="nonzero">
            <g id="编组备份-2" transform="translate(0, 0)">
                <path d="M38.6258389,43.1159444 C35.954885,43.1421195 33.2948375,44.1727653 31.3284308,46.1239031 L31.3284308,46.1239031 C18.184153,59.1743867 9.81574582,79.1678235 9.97824975,101.544288 L9.97824975,101.544288 C10.0524126,111.550822 11.8050557,121.101472 14.9667933,129.670556 L14.9667933,129.670556 C15.4892052,128.426146 16.1010489,127.270078 16.800143,125.937328 L16.800143,125.937328 C27.3759862,106.908008 49.6782876,92.7516254 76.5786869,89.7207635 L76.5786869,89.7207635 C69.454689,84.3712213 63.0297852,77.599497 57.6562491,69.4906598 L57.6562491,69.4906598 C57.1185683,68.6966809 56.5830688,67.9037926 56.1326384,67.0214725 L56.1326384,67.0214725 C37.6235496,79.1122014 24.4465529,93.8226245 18.4524481,109.895245 L18.4524481,109.895245 C22.8215135,89.6716851 35.6255147,72.3960993 53.0821452,61.6413927 L53.0821452,61.6413927 C51.5683501,58.6999624 50.4668134,55.5753063 49.2540324,52.504091 L49.2540324,52.504091 C48.1786708,49.7786056 47.2549068,46.938604 44.8337073,45.1194325 L44.8337073,45.1194325 C43.066886,43.7921352 40.9532443,43.137757 38.8363306,43.1159444 L38.8363306,43.1159444 L38.6258389,43.1159444 Z" id="Fill-1备份-2" transform="translate(43.2773, 86.3933) rotate(-90) translate(-43.2773, -86.3933)"></path>
                <path d="M69.4900403,126.344442 C68.6982426,126.882123 67.9042636,127.417623 67.0219436,127.868053 L67.0219436,127.868053 C79.1137631,146.377142 93.8220049,159.554139 109.895716,165.548243 L109.895716,165.548243 C89.6710656,161.179178 72.3965703,148.375177 61.6418638,130.918546 L61.6418638,130.918546 C58.6993429,132.432341 55.5757774,133.533878 52.5045621,134.746659 L52.5045621,134.746659 C49.7779861,135.822021 46.9390751,136.745785 45.1209942,139.166984 L45.1209942,139.166984 C42.0737728,143.220858 42.5743722,149.096084 46.1243742,152.672261 L46.1243742,152.672261 C59.1759484,165.816539 79.167204,174.184946 101.544759,174.022442 L101.544759,174.022442 C111.551293,173.948279 121.103034,172.195636 129.669936,169.033898 L129.669936,169.033898 C128.426618,168.511486 127.270549,167.899643 125.936708,167.200549 L125.936708,167.200549 C106.907389,156.624705 92.7520965,134.322404 89.7212346,107.422005 L89.7212346,107.422005 C84.3706017,114.546003 77.5988774,120.970906 69.4900403,126.344442" id="Fill-3备份-2" transform="translate(86.3933, 140.7234) rotate(-90) translate(-86.3933, -140.7234)"></path>
                <path d="M167.201638,58.0646843 C156.625795,77.0940038 134.323493,91.249296 107.422003,94.280158 L107.422003,94.280158 C114.546001,99.6307908 120.971996,106.402515 126.344441,114.511352 L126.344441,114.511352 C126.883212,115.30315 127.418712,116.097129 127.869142,116.979449 L127.869142,116.979449 C146.378231,104.887629 159.555228,90.1793876 165.548242,74.1056765 L165.548242,74.1056765 C161.180267,94.330327 148.375176,111.604822 130.918545,122.359529 L130.918545,122.359529 C132.43234,125.302049 133.534967,128.425615 134.746658,131.49683 L134.746658,131.49683 C135.82311,134.223406 136.746874,137.062317 139.166983,138.880398 L139.166983,138.880398 C143.220856,141.92762 149.097173,141.42702 152.672259,137.877018 L152.672259,137.877018 C165.816537,124.825444 174.186035,104.834188 174.02244,82.4566336 L174.02244,82.4566336 C173.949368,72.4500995 172.196725,62.8983583 169.033897,54.3314563 L169.033897,54.3314563 C168.512576,55.574775 167.900732,56.7308433 167.201638,58.0646843" id="Fill-5备份-2" transform="translate(140.7234, 97.6081) rotate(-90) translate(-140.7234, -97.6081)"></path>
                <path d="M82.4572039,9.97817753 C72.4506698,10.0512497 62.9000192,11.8038928 54.330936,14.966721 L54.330936,14.966721 C55.5753453,15.4880424 56.7314135,16.0998861 58.0641639,16.7989801 L58.0641639,16.7989801 C77.0934835,27.3748233 91.2498663,49.6771248 94.2807282,76.5786147 L94.2807282,76.5786147 C99.6302704,69.4546168 106.401995,63.0286224 114.510832,57.6561769 L114.510832,57.6561769 C115.304811,57.1174055 116.097699,56.581906 116.980019,56.1314756 L116.980019,56.1314756 C104.88929,37.6223867 90.1788672,24.44539 74.1062467,18.4523759 L74.1062467,18.4523759 C94.3298066,22.8203507 111.605392,35.6254424 122.360099,53.0820729 L122.360099,53.0820729 C125.301529,51.5682779 128.426185,50.4656506 131.497401,49.2539602 L131.497401,49.2539602 C134.222886,48.1775079 137.062888,47.253744 138.882059,44.8336351 L138.882059,44.8336351 C140.210447,43.0657232 140.864825,40.9520814 140.885547,38.8329865 L140.885547,38.8329865 L140.885547,38.6235855 C140.859372,35.9537222 139.828726,33.292584 137.877589,31.3283586 L137.877589,31.3283586 C124.952528,18.3105939 105.21757,9.97599627 83.1028571,9.97599627 L83.1028571,9.97599627 C82.8869122,9.97599627 82.6731487,9.97599627 82.4572039,9.97817753" id="Fill-7备份-2" transform="translate(97.6082, 43.2773) rotate(-90) translate(-97.6082, -43.2773)"></path>
            </g>
            <g id="编组备份-3" transform="translate(200, 47)">
                <polygon id="Fill-1" points="34.544 0 0 89.557 16.119 89.557 42.603 20.902 57.302 59 34.735 59 29.396 72.814 62.623 72.814 69.088 89.557 85.208 89.557 50.664 0"></polygon>
                <polygon id="Fill-2" points="249.7872 89.559 263.6022 89.559 263.6022 0 249.7872 0"></polygon>
                <path d="M163.3035,22.2306 L163.3035,36.0346 C159.1625,34.9786 154.8585,35.3036 150.9615,37.0086 C148.3635,38.2266 146.0085,40.0136 144.2215,42.2866 C142.3545,44.4796 141.0545,46.9966 140.2435,49.8386 L140.2435,36.0346 C141.7855,31.7306 144.7085,28.0766 148.4445,25.5596 C152.8285,22.6366 158.1075,21.4996 163.3035,22.2306" id="Fill-3"></path>
                <polygon id="Fill-5" points="94.5182 89.557 108.3352 89.557 108.3352 22.221 94.5182 22.221"></polygon>
                <path d="M411.5163,22.2539 L411.5163,87.4579 C411.3533,92.8169 409.5673,97.9319 406.4003,102.2359 C398.5243,112.3859 385.0453,112.8729 380.8223,112.9539 C377.4933,112.9539 362.3903,113.6039 353.7833,103.2099 C351.2653,100.2869 349.5603,96.7139 348.7483,92.9789 L363.0393,92.9789 C364.0143,94.8469 365.3133,96.4709 366.9373,97.8509 C370.8353,101.0989 375.8693,102.6419 380.9853,102.2359 C382.4463,102.2359 390.1603,101.2609 394.0583,96.3079 C396.0883,93.7909 397.3873,90.7049 397.6313,87.4579 L397.6313,80.3929 C392.3523,86.2399 384.9633,89.8939 377.0063,89.8939 C360.6043,89.8939 347.3683,74.7089 347.3683,55.9519 C347.3683,37.1949 360.6043,22.0099 377.0063,22.0099 L390.8103,22.0099 L390.8103,35.8139 L377.0063,35.8139 C375.0573,35.8139 373.1083,36.3009 371.4033,37.1949 C371.1593,37.2759 370.9163,37.4379 370.7543,37.6009 C368.6423,38.7379 366.7753,40.4429 365.3133,42.6349 C364.5823,43.6909 363.9333,44.8279 363.3653,46.0449 C362.7153,47.2639 362.3093,48.4809 361.9843,49.7809 C361.4973,51.7299 361.1723,53.7599 361.1723,55.9519 C361.1723,58.1439 361.4973,60.1739 361.9843,62.1229 C362.3093,63.4219 362.7153,64.6399 363.3653,65.8579 C363.9333,67.0759 364.5823,68.2129 365.3133,69.2689 C366.7753,71.4609 368.6423,73.1659 370.7543,74.3029 C370.9163,74.4649 371.1593,74.6279 371.4033,74.7089 C373.8393,76.0079 376.6003,76.8199 379.4423,76.8199 C389.5113,76.8199 397.6313,67.4819 397.6313,55.9519 L397.6313,22.2539 L411.5163,22.2539 Z" id="Fill-7"></path>
                <path d="M284.7767,31.2311 C278.9207,37.0811 275.6277,45.0141 275.6157,53.2901 L275.6157,59.4801 C275.8387,67.6121 279.2217,75.3371 285.0527,81.0111 C290.8807,86.6851 298.6987,89.8591 306.8327,89.8591 C314.9667,89.8591 322.7807,86.6851 328.6117,81.0111 C334.4397,75.3371 337.8267,67.6121 338.0457,59.4801 L338.0457,53.2901 C338.0337,45.0181 334.7437,37.0881 328.8917,31.2391 C323.0437,25.3901 315.1127,22.0981 306.8447,22.0861 C298.5687,22.0921 290.6327,25.3811 284.7767,31.2311 Z M319.1377,40.9951 C322.3987,44.2561 324.2297,48.6781 324.2297,53.2901 L324.2297,59.4801 C324.0637,63.9851 322.1587,68.2501 318.9137,71.3791 C315.6697,74.5081 311.3407,76.2571 306.8327,76.2571 C302.3247,76.2571 297.9917,74.5081 294.7467,71.3791 C291.5017,68.2501 289.5977,63.9851 289.4347,59.4801 L289.4347,53.2901 C289.4387,48.6761 291.2747,44.2541 294.5397,40.9941 C297.8047,37.7341 302.2317,35.9031 306.8447,35.9031 C311.4537,35.9031 315.8767,37.7351 319.1377,40.9951 Z" id="Fill-8"></path>
                <polygon id="Fill-9" points="483.3025 22.2272 459.6955 83.9832 452.7975 102.0612 448.7585 112.5652 434.9445 112.5652 445.8635 84.0012 445.8635 83.9832 422.2395 22.2272 436.0535 22.2272 452.7795 65.9052 452.7795 65.9232 452.7975 65.9052 469.4885 22.2272"></polygon>
                <polygon id="Fill-10" points="94.4822 15.19 108.3672 15.19 108.3672 0.33 94.4822 0.33"></polygon>
                <polygon id="Fill-11" points="94.4822 89.893 108.3672 89.893 108.3672 22.01 94.4822 22.01"></polygon>
                <polygon id="Fill-12" points="126.4592 89.859 140.2762 89.859 140.2762 22.015 126.4592 22.015"></polygon>
                <path d="M231.6284,22.0101 L231.6284,89.8931 L217.8244,89.8931 L217.8244,80.3121 C212.5464,86.2391 205.1574,89.8931 197.1994,89.8931 C180.7974,89.8931 167.5614,74.7091 167.5614,55.9521 C167.5614,37.1951 180.7974,22.0101 197.1994,22.0101 L211.0034,22.0101 L211.0034,35.8141 L197.1994,35.8141 C195.2514,35.8141 193.3024,36.3011 191.5974,37.1951 C191.3534,37.2761 191.1094,37.4381 190.9474,37.6011 C188.8364,38.7381 186.9684,40.4431 185.5074,42.6351 C184.7764,43.6911 184.1264,44.8281 183.5584,46.0451 C182.9084,47.2641 182.5024,48.4811 182.1784,49.7811 C181.6904,51.7291 181.3654,53.7591 181.3654,55.9521 C181.3654,58.1441 181.6904,60.1741 182.1784,62.1231 C182.5024,63.4221 182.9084,64.6401 183.5584,65.8581 C184.1264,67.0761 184.7764,68.2131 185.5074,69.2681 C186.9684,71.4611 188.8364,73.1661 190.9474,74.3031 C191.1094,74.4651 191.3534,74.6281 191.5974,74.7091 C194.0324,76.0081 196.7934,76.8201 199.6354,76.8201 C209.7044,76.8201 217.8244,67.4821 217.8244,55.9521 L217.8244,22.0101 L231.6284,22.0101 Z" id="Fill-13"></path>
            </g>
        </g>
    </g>
</svg>